<?xml version="1.0" encoding="UTF-8" standalone="no"?>
<!DOCTYPE svg PUBLIC "-//W3C//DTD SVG 1.1//EN"
 "http://www.w3.org/Graphics/SVG/1.1/DTD/svg11.dtd">
<!-- Generated by graphviz version 2.40.1 (20161225.0304)
 -->
<!-- Title: G Pages: 1 -->
<svg width="134pt" height="740pt"
 viewBox="0.00 0.00 134.00 740.00" xmlns="http://www.w3.org/2000/svg" xmlns:xlink="http://www.w3.org/1999/xlink">
<g id="graph0" class="graph" transform="scale(1 1) rotate(0) translate(4 736)">
<title>G</title>
<polygon fill="#ffffff" stroke="transparent" points="-4,4 -4,-736 130,-736 130,4 -4,4"/>
<!-- f -->
<g id="node1" class="node">
<title>f</title>
<ellipse fill="none" stroke="#000000" cx="63" cy="-714" rx="27" ry="18"/>
<text text-anchor="middle" x="63" y="-710.3" font-family="Times,serif" font-size="14.00" fill="#000000">f</text>
</g>
<!-- a -->
<g id="node2" class="node">
<title>a</title>
<ellipse fill="none" stroke="#000000" cx="27" cy="-627" rx="27" ry="18"/>
<text text-anchor="middle" x="27" y="-623.3" font-family="Times,serif" font-size="14.00" fill="#000000">a</text>
</g>
<!-- f&#45;&gt;a -->
<g id="edge1" class="edge">
<title>f&#45;&gt;a</title>
<path fill="none" stroke="#000000" d="M55.7149,-696.3943C50.6889,-684.2482 43.9107,-667.8674 38.2018,-654.0711"/>
<polygon fill="#000000" stroke="#000000" points="41.3319,-652.4815 34.2743,-644.5796 34.8638,-655.158 41.3319,-652.4815"/>
<text text-anchor="middle" x="51.5" y="-666.8" font-family="Times,serif" font-size="14.00" fill="#000000">L</text>
</g>
<!-- g -->
<g id="node3" class="node">
<title>g</title>
<ellipse fill="none" stroke="#000000" cx="99" cy="-627" rx="27" ry="18"/>
<text text-anchor="middle" x="99" y="-623.3" font-family="Times,serif" font-size="14.00" fill="#000000">g</text>
</g>
<!-- f&#45;&gt;g -->
<g id="edge2" class="edge">
<title>f&#45;&gt;g</title>
<path fill="none" stroke="#000000" d="M70.2851,-696.3943C75.3111,-684.2482 82.0893,-667.8674 87.7982,-654.0711"/>
<polygon fill="#000000" stroke="#000000" points="91.1362,-655.158 91.7257,-644.5796 84.6681,-652.4815 91.1362,-655.158"/>
<text text-anchor="middle" x="88" y="-666.8" font-family="Times,serif" font-size="14.00" fill="#000000">R</text>
</g>
<!-- b -->
<g id="node4" class="node">
<title>b</title>
<ellipse fill="none" stroke="#000000" cx="27" cy="-540" rx="27" ry="18"/>
<text text-anchor="middle" x="27" y="-536.3" font-family="Times,serif" font-size="14.00" fill="#000000">b</text>
</g>
<!-- a&#45;&gt;b -->
<g id="edge3" class="edge">
<title>a&#45;&gt;b</title>
<path fill="none" stroke="#000000" d="M27,-608.9735C27,-597.1918 27,-581.5607 27,-568.1581"/>
<polygon fill="#000000" stroke="#000000" points="30.5001,-568.0033 27,-558.0034 23.5001,-568.0034 30.5001,-568.0033"/>
<text text-anchor="middle" x="32" y="-579.8" font-family="Times,serif" font-size="14.00" fill="#000000">R</text>
</g>
<!-- h -->
<g id="node8" class="node">
<title>h</title>
<ellipse fill="none" stroke="#000000" cx="99" cy="-540" rx="27" ry="18"/>
<text text-anchor="middle" x="99" y="-536.3" font-family="Times,serif" font-size="14.00" fill="#000000">h</text>
</g>
<!-- g&#45;&gt;h -->
<g id="edge7" class="edge">
<title>g&#45;&gt;h</title>
<path fill="none" stroke="#000000" d="M99,-608.9735C99,-597.1918 99,-581.5607 99,-568.1581"/>
<polygon fill="#000000" stroke="#000000" points="102.5001,-568.0033 99,-558.0034 95.5001,-568.0034 102.5001,-568.0033"/>
<text text-anchor="middle" x="104" y="-579.8" font-family="Times,serif" font-size="14.00" fill="#000000">R</text>
</g>
<!-- c -->
<g id="node5" class="node">
<title>c</title>
<ellipse fill="none" stroke="#000000" cx="27" cy="-453" rx="27" ry="18"/>
<text text-anchor="middle" x="27" y="-449.3" font-family="Times,serif" font-size="14.00" fill="#000000">c</text>
</g>
<!-- b&#45;&gt;c -->
<g id="edge4" class="edge">
<title>b&#45;&gt;c</title>
<path fill="none" stroke="#000000" d="M27,-521.9735C27,-510.1918 27,-494.5607 27,-481.1581"/>
<polygon fill="#000000" stroke="#000000" points="30.5001,-481.0033 27,-471.0034 23.5001,-481.0034 30.5001,-481.0033"/>
<text text-anchor="middle" x="32" y="-492.8" font-family="Times,serif" font-size="14.00" fill="#000000">R</text>
</g>
<!-- d -->
<g id="node6" class="node">
<title>d</title>
<ellipse fill="none" stroke="#000000" cx="27" cy="-366" rx="27" ry="18"/>
<text text-anchor="middle" x="27" y="-362.3" font-family="Times,serif" font-size="14.00" fill="#000000">d</text>
</g>
<!-- c&#45;&gt;d -->
<g id="edge5" class="edge">
<title>c&#45;&gt;d</title>
<path fill="none" stroke="#000000" d="M27,-434.9735C27,-423.1918 27,-407.5607 27,-394.1581"/>
<polygon fill="#000000" stroke="#000000" points="30.5001,-394.0033 27,-384.0034 23.5001,-394.0034 30.5001,-394.0033"/>
<text text-anchor="middle" x="32" y="-405.8" font-family="Times,serif" font-size="14.00" fill="#000000">R</text>
</g>
<!-- e -->
<g id="node7" class="node">
<title>e</title>
<ellipse fill="none" stroke="#000000" cx="27" cy="-279" rx="27" ry="18"/>
<text text-anchor="middle" x="27" y="-275.3" font-family="Times,serif" font-size="14.00" fill="#000000">e</text>
</g>
<!-- d&#45;&gt;e -->
<g id="edge6" class="edge">
<title>d&#45;&gt;e</title>
<path fill="none" stroke="#000000" d="M27,-347.9735C27,-336.1918 27,-320.5607 27,-307.1581"/>
<polygon fill="#000000" stroke="#000000" points="30.5001,-307.0033 27,-297.0034 23.5001,-307.0034 30.5001,-307.0033"/>
<text text-anchor="middle" x="32" y="-318.8" font-family="Times,serif" font-size="14.00" fill="#000000">R</text>
</g>
<!-- i -->
<g id="node9" class="node">
<title>i</title>
<ellipse fill="none" stroke="#000000" cx="99" cy="-453" rx="27" ry="18"/>
<text text-anchor="middle" x="99" y="-449.3" font-family="Times,serif" font-size="14.00" fill="#000000">i</text>
</g>
<!-- h&#45;&gt;i -->
<g id="edge8" class="edge">
<title>h&#45;&gt;i</title>
<path fill="none" stroke="#000000" d="M99,-521.9735C99,-510.1918 99,-494.5607 99,-481.1581"/>
<polygon fill="#000000" stroke="#000000" points="102.5001,-481.0033 99,-471.0034 95.5001,-481.0034 102.5001,-481.0033"/>
<text text-anchor="middle" x="104" y="-492.8" font-family="Times,serif" font-size="14.00" fill="#000000">R</text>
</g>
<!-- j -->
<g id="node10" class="node">
<title>j</title>
<ellipse fill="none" stroke="#000000" cx="99" cy="-366" rx="27" ry="18"/>
<text text-anchor="middle" x="99" y="-362.3" font-family="Times,serif" font-size="14.00" fill="#000000">j</text>
</g>
<!-- i&#45;&gt;j -->
<g id="edge9" class="edge">
<title>i&#45;&gt;j</title>
<path fill="none" stroke="#000000" d="M99,-434.9735C99,-423.1918 99,-407.5607 99,-394.1581"/>
<polygon fill="#000000" stroke="#000000" points="102.5001,-394.0033 99,-384.0034 95.5001,-394.0034 102.5001,-394.0033"/>
<text text-anchor="middle" x="104" y="-405.8" font-family="Times,serif" font-size="14.00" fill="#000000">R</text>
</g>
<!-- k -->
<g id="node11" class="node">
<title>k</title>
<ellipse fill="none" stroke="#000000" cx="99" cy="-279" rx="27" ry="18"/>
<text text-anchor="middle" x="99" y="-275.3" font-family="Times,serif" font-size="14.00" fill="#000000">k</text>
</g>
<!-- j&#45;&gt;k -->
<g id="edge10" class="edge">
<title>j&#45;&gt;k</title>
<path fill="none" stroke="#000000" d="M99,-347.9735C99,-336.1918 99,-320.5607 99,-307.1581"/>
<polygon fill="#000000" stroke="#000000" points="102.5001,-307.0033 99,-297.0034 95.5001,-307.0034 102.5001,-307.0033"/>
<text text-anchor="middle" x="104" y="-318.8" font-family="Times,serif" font-size="14.00" fill="#000000">R</text>
</g>
<!-- l -->
<g id="node12" class="node">
<title>l</title>
<ellipse fill="none" stroke="#000000" cx="99" cy="-192" rx="27" ry="18"/>
<text text-anchor="middle" x="99" y="-188.3" font-family="Times,serif" font-size="14.00" fill="#000000">l</text>
</g>
<!-- k&#45;&gt;l -->
<g id="edge11" class="edge">
<title>k&#45;&gt;l</title>
<path fill="none" stroke="#000000" d="M99,-260.9735C99,-249.1918 99,-233.5607 99,-220.1581"/>
<polygon fill="#000000" stroke="#000000" points="102.5001,-220.0033 99,-210.0034 95.5001,-220.0034 102.5001,-220.0033"/>
<text text-anchor="middle" x="104" y="-231.8" font-family="Times,serif" font-size="14.00" fill="#000000">R</text>
</g>
<!-- m -->
<g id="node13" class="node">
<title>m</title>
<ellipse fill="none" stroke="#000000" cx="99" cy="-105" rx="27" ry="18"/>
<text text-anchor="middle" x="99" y="-101.3" font-family="Times,serif" font-size="14.00" fill="#000000">m</text>
</g>
<!-- l&#45;&gt;m -->
<g id="edge12" class="edge">
<title>l&#45;&gt;m</title>
<path fill="none" stroke="#000000" d="M99,-173.9735C99,-162.1918 99,-146.5607 99,-133.1581"/>
<polygon fill="#000000" stroke="#000000" points="102.5001,-133.0033 99,-123.0034 95.5001,-133.0034 102.5001,-133.0033"/>
<text text-anchor="middle" x="104" y="-144.8" font-family="Times,serif" font-size="14.00" fill="#000000">R</text>
</g>
<!-- n -->
<g id="node14" class="node">
<title>n</title>
<ellipse fill="none" stroke="#000000" cx="99" cy="-18" rx="27" ry="18"/>
<text text-anchor="middle" x="99" y="-14.3" font-family="Times,serif" font-size="14.00" fill="#000000">n</text>
</g>
<!-- m&#45;&gt;n -->
<g id="edge13" class="edge">
<title>m&#45;&gt;n</title>
<path fill="none" stroke="#000000" d="M99,-86.9735C99,-75.1918 99,-59.5607 99,-46.1581"/>
<polygon fill="#000000" stroke="#000000" points="102.5001,-46.0033 99,-36.0034 95.5001,-46.0034 102.5001,-46.0033"/>
<text text-anchor="middle" x="104" y="-57.8" font-family="Times,serif" font-size="14.00" fill="#000000">R</text>
</g>
</g>
</svg>
